<?xml version="1.0" encoding="utf-8"?>
<!-- Generator: Adobe Illustrator 24.1.1, SVG Export Plug-In . SVG Version: 6.00 Build 0)  -->
<svg version="1.1" id="Layer_1" xmlns="http://www.w3.org/2000/svg" xmlns:xlink="http://www.w3.org/1999/xlink" x="0px" y="0px"
	 viewBox="0 0 720 270" style="enable-background:new 0 0 720 270;" xml:space="preserve">
<style type="text/css">
	.st0{fill:url(#SVGID_1_);}
	.st1{fill:url(#SVGID_2_);}
	.st2{fill:#FFFFFF;}
</style>
<g>
	
		<linearGradient id="SVGID_1_" gradientUnits="userSpaceOnUse" x1="1.6369" y1="49.5058" x2="718.3631" y2="49.5058" gradientTransform="matrix(1 0 0 -1 0 271)">
		<stop  offset="0" style="stop-color:#F02C84"/>
		<stop  offset="1" style="stop-color:#EF940B"/>
	</linearGradient>
	<path class="st0" d="M676.6,263.3H43.4c-23,0-41.8-18.8-41.8-41.8l0,0c0-23,18.8-41.8,41.8-41.8h633.2c23,0,41.8,18.8,41.8,41.8
		l0,0C718.4,244.5,699.6,263.3,676.6,263.3z"/>
	
		<linearGradient id="SVGID_2_" gradientUnits="userSpaceOnUse" x1="191.4623" y1="264.1318" x2="191.4623" y2="181.9068" gradientTransform="matrix(1 0 0 -1 0 271)">
		<stop  offset="0" style="stop-color:#F02C84"/>
		<stop  offset="1" style="stop-color:#EF940B"/>
	</linearGradient>
	<path class="st1" d="M339.5,90.3H43.4c-23,0-41.8-18.8-41.8-41.8l0,0c0-23,18.8-41.8,41.8-41.8h296.1c23,0,41.8,18.8,41.8,41.8l0,0
		C381.3,71.5,362.5,90.3,339.5,90.3z"/>
	<path class="st2" d="M102.7,15.6v64.8h-9.8V39.3l-18,41.1H63.8L46.1,39.5v40.9h-9.8V15.6h10.3l22.8,52.9l23.1-52.9L102.7,15.6
		L102.7,15.6z"/>
	<path class="st2" d="M163.3,15.6v64.8h-9.9V65.3h-22l-9.5,15.1h-11.6l41-64.8H163.3z M137.6,55.5h15.8V30.5L137.6,55.5z"/>
	<path class="st2" d="M191.6,81c-4.3-0.2-8.2-1.3-11.8-3.4c-4.1-2.4-6.9-5.6-8.4-9.6l9.2-3.4c0.8,2,2.3,3.6,4.7,4.8
		c2.1,1,4.4,1.6,6.8,1.8c3.8,0.2,6.9-0.8,9.4-2.8c2.1-1.7,3.2-3.6,3.3-5.8c0.2-4.1-4.2-7.4-13-9.9c-13.9-3.9-20.6-10.5-20.2-19.8
		c0.3-6.5,3.1-11.4,8.4-14.6c4-2.5,8.9-3.6,14.6-3.3c6.9,0.3,12.4,2.7,16.6,7.2l-7.2,6.7c-2.4-2.5-5.6-3.9-9.8-4.1
		c-2.9-0.1-5.5,0.3-7.6,1.1c-3.3,1.4-5,3.9-5.1,7.4c-0.2,4.1,4.2,7.3,13,9.8c8,2.2,13.6,5.5,16.9,9.9c2.3,3,3.4,6.3,3.2,10
		c-0.3,5.1-2.6,9.5-7,13.1c-4.1,3.3-9,5-14.7,5C192.4,81,192,81,191.6,81z"/>
	<path class="st2" d="M257.4,15.6v9.8h-13.7v55h-9.9v-55h-13.7v-9.8L257.4,15.6L257.4,15.6z"/>
	<path class="st2" d="M299.3,15.6v9.8h-23.2V43H294v9.8h-17.9v17.8h23.2v9.8h-33V15.6H299.3z"/>
	<path class="st2" d="M352.8,80.4h-11.1l-14.1-27.3h-11.1v27.3h-9.8V15.6h23.9c5.2,0,9.6,1.8,13.2,5.5c3.7,3.7,5.5,8.1,5.5,13.3
		c0,3.8-1.1,7.3-3.2,10.4c-2.1,3.1-4.8,5.3-8.2,6.8L352.8,80.4z M330.6,43.3c2.4,0,4.5-0.9,6.3-2.6c1.7-1.7,2.6-3.8,2.6-6.3
		c0-2.5-0.8-4.6-2.6-6.3c-1.8-1.8-3.9-2.6-6.3-2.6h-14.1v17.8L330.6,43.3L330.6,43.3z"/>
	<path class="st2" d="M74,102.5v2.4H54v62.6h-2.4v-62.6h-20v-2.4L74,102.5L74,102.5z"/>
	<path class="st2" d="M123.5,102.5v65h-2.4v-31.4H82.3v31.4h-2.4v-65h2.4v31.2h38.8v-31.2L123.5,102.5L123.5,102.5z"/>
	<path class="st2" d="M164.5,102.5v2.4h-30.8v28.8h24.8v2.4h-24.8v29h30.8v2.4h-33.2v-65H164.5z"/>
	<path class="st2" d="M236.4,102.5v65H234v-17.2h-29.5l-10.9,17.2h-2.9l12.2-19.2v-0.4h0.2l28.7-45.3L236.4,102.5L236.4,102.5z
		 M206.1,147.9H234v-44.2L206.1,147.9z"/>
	<path class="st2" d="M283.5,167.5l-16.2-31.1h-19.7v31.1h-2.4v-65h22.8c4.7,0,8.6,1.7,12,5c3.3,3.3,5,7.3,5,12
		c0,4.3-1.4,8.1-4.3,11.3c-2.9,3.2-6.4,5-10.7,5.5l16.2,31.2L283.5,167.5L283.5,167.5z M247.7,134h20.4c4,0,7.4-1.4,10.2-4.2
		c2.9-2.8,4.2-6.2,4.2-10.2s-1.4-7.4-4.2-10.3c-2.9-2.9-6.3-4.2-10.2-4.2h-20.4V134z"/>
	<path class="st2" d="M327.5,102.5v2.4h-20v62.6h-2.4v-62.6h-20v-2.4L327.5,102.5L327.5,102.5z"/>
	<path class="st2" d="M41.9,245.6c-6.5-6.5-9.7-14.2-9.7-23.3s3.2-16.9,9.7-23.3c6.5-6.5,14.2-9.7,23.3-9.7s16.9,3.2,23.3,9.7
		c6.5,6.5,9.7,14.2,9.7,23.3s-3.2,16.9-9.7,23.3c-6.5,6.5-14.2,9.7-23.3,9.7C56.1,255.3,48.3,252,41.9,245.6z M48.9,205.8
		c-4.5,4.5-6.8,10-6.8,16.4s2.3,11.8,6.8,16.4c4.5,4.5,10,6.8,16.4,6.8s11.8-2.3,16.4-6.8c4.5-4.5,6.8-10,6.8-16.4
		s-2.3-11.8-6.8-16.4c-4.5-4.5-10-6.8-16.4-6.8S53.4,201.3,48.9,205.8z"/>
	<path class="st2" d="M138.9,189.8v9.8h-23.2v17.6h17.9v9.8h-17.9v27.6h-9.8v-64.8H138.9z"/>
	<path class="st2" d="M202.8,189.8v9.8h-23.2v17.6h17.9v9.8h-17.9v27.6h-9.8v-64.8H202.8z"/>
	<path class="st2" d="M218,248.5c-4.5-4.5-6.8-9.9-6.8-16.3v-42.4h9.9v42.4c0,3.7,1.3,6.8,3.9,9.3c2.6,2.6,5.7,3.9,9.3,3.9
		c3.7,0,6.8-1.3,9.3-3.9c2.6-2.6,3.9-5.7,3.9-9.3v-42.4h9.9v42.4c0,6.4-2.3,11.8-6.8,16.3c-4.5,4.5-9.9,6.8-16.3,6.8
		C227.9,255.2,222.5,252.9,218,248.5z"/>
	<path class="st2" d="M315.6,189.8v64.8h-10.3l-27.7-46.3v46.3h-9.8v-64.8h10.3l27.7,46.3v-46.3H315.6z"/>
	<path class="st2" d="M325.7,254.6v-64.8h17c8.9,0,16.6,3.1,22.9,9.5c6.3,6.3,9.4,14,9.4,22.9c0,8.9-3.1,16.5-9.4,22.8
		c-6.3,6.3-14,9.5-22.9,9.5L325.7,254.6L325.7,254.6z M335.4,244.8h7.2c6.2,0,11.5-2.2,16-6.6c4.4-4.4,6.6-9.7,6.6-16
		s-2.2-11.6-6.6-16c-4.5-4.5-9.8-6.6-16-6.6h-7.2V244.8z"/>
	<path class="st2" d="M428.9,254.6h-11.1l-14.1-27.3h-11.1v27.3h-9.8v-64.8h23.9c5.2,0,9.6,1.8,13.2,5.5c3.7,3.7,5.5,8.1,5.5,13.3
		c0,3.8-1.1,7.3-3.2,10.4c-2.1,3.1-4.8,5.3-8.2,6.8L428.9,254.6z M406.6,217.5c2.4,0,4.5-0.9,6.3-2.6c1.7-1.7,2.6-3.8,2.6-6.3
		c0-2.5-0.8-4.6-2.6-6.3c-1.8-1.8-3.9-2.6-6.3-2.6h-14.1v17.8L406.6,217.5L406.6,217.5z"/>
	<path class="st2" d="M484.2,189.8v64.8h-9.9v-15.1h-22l-9.5,15.1h-11.6l41-64.8H484.2z M458.5,229.7h15.8v-24.9L458.5,229.7z"/>
	<path class="st2" d="M505.1,254.6h-9.8v-64.7h9.8V254.6z"/>
	<path class="st2" d="M533.1,255.2c-4.3-0.2-8.2-1.3-11.8-3.4c-4.1-2.4-6.9-5.6-8.4-9.6l9.2-3.4c0.8,2,2.3,3.6,4.7,4.8
		c2.1,1,4.4,1.6,6.8,1.8c3.8,0.2,6.9-0.8,9.4-2.8c2.1-1.7,3.2-3.6,3.3-5.8c0.2-4.1-4.2-7.4-13-9.9c-13.9-3.9-20.6-10.5-20.2-19.8
		c0.3-6.5,3.1-11.4,8.4-14.6c4-2.5,8.9-3.6,14.6-3.3c6.9,0.3,12.4,2.7,16.6,7.2l-7.2,6.7c-2.4-2.5-5.6-3.9-9.8-4.1
		c-2.9-0.1-5.5,0.3-7.6,1.1c-3.3,1.4-5,3.9-5.1,7.4c-0.2,4.1,4.2,7.3,13,9.8c8,2.2,13.6,5.5,16.9,9.9c2.3,3,3.4,6.3,3.2,10
		c-0.3,5.1-2.6,9.5-7,13c-4.1,3.3-9,5-14.7,5C533.9,255.3,533.5,255.3,533.1,255.2z"/>
	<path class="st2" d="M573.8,254.6H564v-64.7h9.8V254.6L573.8,254.6z"/>
	<path class="st2" d="M631.7,189.8v64.8h-10.3l-27.7-46.3v46.3h-9.8v-64.8h10.3l27.7,46.3v-46.3H631.7z"/>
	<path class="st2" d="M648.8,245.6c-6.5-6.5-9.7-14.2-9.7-23.3s3.2-16.9,9.7-23.3c6.5-6.5,14.2-9.7,23.3-9.7c4.5,0,8.8,0.8,12.8,2.6
		l-3.8,9.1c-2.9-1.2-5.9-1.8-9.1-1.8c-6.4,0-11.8,2.3-16.4,6.8c-4.5,4.5-6.8,10-6.8,16.4s2.3,11.8,6.8,16.4c4.5,4.5,10,6.8,16.4,6.8
		c2.1,0,4.1-0.3,6-0.8V227h-10.5v-9.9H688v34.3l-3,1.3c-4.1,1.8-8.4,2.6-12.9,2.6C663.1,255.3,655.3,252,648.8,245.6z"/>
</g>
</svg>
